<?xml version="1.0" encoding="utf-8"?>
<!-- Generator: Adobe Illustrator 24.0.0, SVG Export Plug-In . SVG Version: 6.00 Build 0)  -->
<svg version="1.1" id="Capa_1" xmlns="http://www.w3.org/2000/svg" xmlns:xlink="http://www.w3.org/1999/xlink" x="0px" y="0px" width="46.491px" height="68.421px" 
	 viewBox="0 0 46.49 68.42" style="enable-background:new 0 0 46.49 68.42;" xml:space="preserve">
<style type="text/css">
	.st0{fill:url(#SVGID_1_);}
	.st1{fill:url(#SVGID_2_);}
</style>
<g>
	<g>
		<linearGradient id="SVGID_1_" gradientUnits="userSpaceOnUse" x1="8.4734" y1="19.7892" x2="34.615" y2="48.2257">
			<stop  offset="0" style="stop-color:#FFEC15"/>
			<stop  offset="1" style="stop-color:#FF8000"/>
		</linearGradient>
		<path class="st0" d="M14.73,22.79L14.73,22.79c2.1,0,3.81,1.7,3.81,3.81v0c0,2.1-1.7,3.81-3.81,3.81h0c-2.1,0-3.81-1.7-3.81-3.81
			v0C10.93,24.5,12.63,22.79,14.73,22.79z"/>
	</g>
	<g>
		<linearGradient id="SVGID_2_" gradientUnits="userSpaceOnUse" x1="11.4128" y1="17.087" x2="37.5544" y2="45.5235">
			<stop  offset="0" style="stop-color:#FFEC15"/>
			<stop  offset="1" style="stop-color:#FF8000"/>
		</linearGradient>
		<path class="st1" d="M37.34,18.99c1.05,0,1.9,0.85,1.9,1.9v12.48c0,4.44-1.8,8.45-4.7,11.36c-2.91,2.91-6.92,4.7-11.36,4.7h0
			c-8.14,0-14.87-6.06-15.92-13.92C7.11,34.38,8,33.37,9.15,33.37h0c0.95,0,1.76,0.71,1.89,1.65c0.37,2.72,1.63,5.16,3.48,7.01
			c2.22,2.22,5.28,3.59,8.67,3.59h0c6.77,0,12.26-5.49,12.26-12.26v-0.18c-1.11,0.64-2.4,1.01-3.78,1.02
			c-4.2,0.02-7.64-3.49-7.64-7.7v-5.62c0-1.05,0.85-1.9,1.9-1.9h0c1.05,0,1.9,0.85,1.9,1.9v5.71c0,1.05,0.43,2,1.11,2.69
			c0.69,0.69,1.64,1.12,2.69,1.12s2-0.43,2.69-1.12c0.69-0.69,1.11-1.64,1.11-2.69v-5.71C35.44,19.84,36.29,18.99,37.34,18.99
			L37.34,18.99z"/>
	</g>
</g>
</svg>
